<?xml version="1.0" encoding="utf-8"?><svg xmlns="http://www.w3.org/2000/svg" xmlns:xlink="http://www.w3.org/1999/xlink"><symbol viewBox="0 0 647 390" id="warenkorb" xmlns="http://www.w3.org/2000/svg"><path d="M359.505 301.826c0 6.275-5.714 11.361-12.763 11.361H120.335c-7.049 0-12.763-5.086-12.763-11.361s5.714-11.361 12.763-11.361h226.408c7.049-.001 12.762 5.085 12.762 11.361z"/><path d="M165.616 300.837c-20.873 0-37.79 16.92-37.79 37.791 0 20.869 16.917 37.789 37.79 37.789s37.79-16.92 37.79-37.789c0-20.871-16.917-37.791-37.79-37.791zm-.247 56.809c-10.64 0-19.266-8.625-19.266-19.266s8.625-19.266 19.266-19.266 19.266 8.625 19.266 19.266-8.626 19.266-19.266 19.266zM307.884 300.837c-20.873 0-37.79 16.92-37.79 37.791 0 20.869 16.917 37.789 37.79 37.789 20.873 0 37.79-16.92 37.79-37.789-.001-20.871-16.918-37.791-37.79-37.791zm-.247 56.809c-10.64 0-19.266-8.625-19.266-19.266s8.625-19.266 19.266-19.266 19.266 8.625 19.266 19.266-8.626 19.266-19.266 19.266z"/><path d="M381.146 67.276H95.717L76.945 26.675 11.739 0S-10.984 6.916 6.8 23.711l49.398 21.736 67.182 191.666s-4.94-3.951-25.688 60.268c0 0-3.952 15.807 19.76 15.807l18.771-57.303h193.643s12.844 1.977 12.844-12.844l53.161-161.039c0-.001 1.976-14.726-14.725-14.726zM181.67 233.162h-30.627l-10.597-30.133h41.225v30.133zm0-54.833h-49.914l-12.163-34.579h62.077v34.579zm0-59.278h-70.764l-10.25-29.146h81.014v29.146zm84.966 114.111H206.37v-30.133h60.266v30.133zm0-54.833H206.37V143.75h60.266v34.579zm0-59.278H206.37V89.905h60.266v29.146zm53.35 114.111h-28.651v-30.133h38.625l-9.974 30.133zm18.153-54.833h-46.803V143.75h58.25l-11.447 34.579zm19.622-59.278h-66.426V89.905h76.074l-9.648 29.146z"/><path fill="none" d="M399.025 178.823h247.981v211.426H399.025z"/><text transform="translate(399.025 306.152)" font-family="'ArialMT'" font-size="177.835">+</text></symbol></svg>